<?xml version="1.0" encoding="UTF-8" standalone="no"?>
<!-- Created with Inkscape (http://www.inkscape.org/) -->

<svg
   width="89.900391mm"
   height="37.779301mm"
   viewBox="0 0 89.900392 37.779301"
   version="1.1"
   id="svg206"
   sodipodi:docname="CRI Full Color with Outline.svg"
   inkscape:version="1.2 (dc2aedaf03, 2022-05-15)"
   inkscape:export-filename="CRI Full Color - Side Text.png"
   inkscape:export-xdpi="500"
   inkscape:export-ydpi="500"
   xmlns:inkscape="http://www.inkscape.org/namespaces/inkscape"
   xmlns:sodipodi="http://sodipodi.sourceforge.net/DTD/sodipodi-0.dtd"
   xmlns="http://www.w3.org/2000/svg"
   xmlns:svg="http://www.w3.org/2000/svg">
  <sodipodi:namedview
     id="namedview208"
     pagecolor="#ffffff"
     bordercolor="#111111"
     borderopacity="1"
     inkscape:showpageshadow="0"
     inkscape:pageopacity="0"
     inkscape:pagecheckerboard="1"
     inkscape:deskcolor="#d1d1d1"
     inkscape:document-units="mm"
     showgrid="false"
     inkscape:zoom="2.7125486"
     inkscape:cx="149.30608"
     inkscape:cy="53.270935"
     inkscape:window-width="1653"
     inkscape:window-height="1085"
     inkscape:window-x="260"
     inkscape:window-y="121"
     inkscape:window-maximized="0"
     inkscape:current-layer="layer5" />
  <defs
     id="defs203">
    <inkscape:path-effect
       effect="offset"
       id="path-effect4599"
       is_visible="true"
       lpeversion="1.2"
       linejoin_type="miter"
       unit="mm"
       offset="0.5"
       miter_limit="4"
       attempt_force_join="false"
       update_on_knot_move="true" />
    <inkscape:path-effect
       effect="offset"
       id="path-effect4588"
       is_visible="true"
       lpeversion="1.2"
       linejoin_type="miter"
       unit="mm"
       offset="0.5"
       miter_limit="4"
       attempt_force_join="false"
       update_on_knot_move="true" />
    <inkscape:path-effect
       effect="offset"
       id="path-effect4580"
       is_visible="true"
       lpeversion="1.2"
       linejoin_type="miter"
       unit="mm"
       offset="0.5"
       miter_limit="4"
       attempt_force_join="false"
       update_on_knot_move="true" />
    <inkscape:path-effect
       effect="offset"
       id="path-effect4569"
       is_visible="true"
       lpeversion="1.2"
       linejoin_type="miter"
       unit="mm"
       offset="0.5"
       miter_limit="4"
       attempt_force_join="false"
       update_on_knot_move="true" />
    <inkscape:path-effect
       effect="offset"
       id="path-effect4564"
       is_visible="true"
       lpeversion="1.2"
       linejoin_type="miter"
       unit="mm"
       offset="0.5"
       miter_limit="4"
       attempt_force_join="false"
       update_on_knot_move="true" />
    <inkscape:path-effect
       effect="offset"
       id="path-effect4561"
       is_visible="true"
       lpeversion="1.2"
       linejoin_type="miter"
       unit="mm"
       offset="0.5"
       miter_limit="4"
       attempt_force_join="false"
       update_on_knot_move="true" />
    <inkscape:path-effect
       effect="offset"
       id="path-effect4547"
       is_visible="true"
       lpeversion="1.2"
       linejoin_type="miter"
       unit="mm"
       offset="0.5"
       miter_limit="4"
       attempt_force_join="false"
       update_on_knot_move="true" />
    <inkscape:path-effect
       effect="offset"
       id="path-effect4530"
       is_visible="true"
       lpeversion="1.2"
       linejoin_type="miter"
       unit="mm"
       offset="0.5"
       miter_limit="4"
       attempt_force_join="false"
       update_on_knot_move="true" />
    <inkscape:path-effect
       effect="offset"
       id="path-effect3474"
       is_visible="true"
       lpeversion="1.2"
       linejoin_type="miter"
       unit="mm"
       offset="0.5"
       miter_limit="4"
       attempt_force_join="false"
       update_on_knot_move="true" />
    <inkscape:path-effect
       effect="offset"
       id="path-effect3468"
       is_visible="true"
       lpeversion="1.2"
       linejoin_type="miter"
       unit="mm"
       offset="0.5"
       miter_limit="4"
       attempt_force_join="false"
       update_on_knot_move="true" />
    <inkscape:path-effect
       effect="offset"
       id="path-effect3458"
       is_visible="true"
       lpeversion="1.2"
       linejoin_type="miter"
       unit="mm"
       offset="0.5"
       miter_limit="4"
       attempt_force_join="false"
       update_on_knot_move="true" />
    <inkscape:path-effect
       effect="offset"
       id="path-effect3443"
       is_visible="true"
       lpeversion="1.2"
       linejoin_type="miter"
       unit="mm"
       offset="2"
       miter_limit="4"
       attempt_force_join="false"
       update_on_knot_move="true" />
    <inkscape:path-effect
       effect="offset"
       id="path-effect3437"
       is_visible="true"
       lpeversion="1.2"
       linejoin_type="miter"
       unit="mm"
       offset="2"
       miter_limit="4"
       attempt_force_join="false"
       update_on_knot_move="true" />
    <inkscape:path-effect
       effect="offset"
       id="path-effect3425"
       is_visible="true"
       lpeversion="1.2"
       linejoin_type="miter"
       unit="mm"
       offset="0.5"
       miter_limit="4"
       attempt_force_join="false"
       update_on_knot_move="true" />
    <inkscape:path-effect
       effect="offset"
       id="path-effect3421"
       is_visible="true"
       lpeversion="1.2"
       linejoin_type="miter"
       unit="mm"
       offset="0.5"
       miter_limit="4"
       attempt_force_join="false"
       update_on_knot_move="true" />
    <inkscape:path-effect
       effect="offset"
       id="path-effect2741"
       is_visible="true"
       lpeversion="1.2"
       linejoin_type="miter"
       unit="mm"
       offset="2"
       miter_limit="4"
       attempt_force_join="false"
       update_on_knot_move="true" />
    <inkscape:path-effect
       effect="offset"
       id="path-effect1185"
       is_visible="true"
       lpeversion="1.2"
       linejoin_type="miter"
       unit="mm"
       offset="0.72926416"
       miter_limit="4"
       attempt_force_join="false"
       update_on_knot_move="true" />
    <inkscape:path-effect
       effect="offset"
       id="path-effect503"
       is_visible="true"
       lpeversion="1.2"
       linejoin_type="miter"
       unit="mm"
       offset="1"
       miter_limit="4"
       attempt_force_join="false"
       update_on_knot_move="true" />
    <inkscape:path-effect
       effect="clone_original"
       linkeditem=""
       id="path-effect501"
       is_visible="true"
       lpeversion="1"
       method="d"
       attributes=""
       css_properties=""
       allow_transforms="true" />
    <inkscape:path-effect
       effect="offset"
       id="path-effect11663"
       is_visible="true"
       lpeversion="1.2"
       linejoin_type="miter"
       unit="mm"
       offset="1"
       miter_limit="4"
       attempt_force_join="false"
       update_on_knot_move="true" />
  </defs>
  <g
     inkscape:groupmode="layer"
     id="layer5"
     inkscape:label="Outline"
     style="display:inline"
     transform="translate(0.499714,0.499956)">
    <g
       id="g4545"
       inkscape:path-effect="#path-effect4547"
       style="display:inline;fill:#000000"
       transform="translate(-51.562214,-94.593706)">
      <path
         id="path4539"
         style="font-style:italic;font-weight:bold;font-size:50.8px;line-height:1.25;font-family:Gotham;-inkscape-font-specification:'Gotham, Bold Italic';fill:#000000;stroke-width:0.264583"
         d="m 94.816406,94.703125 -3.054687,11.367185 1.335937,5.25391 5.814453,-1.10156 -4.216797,3.75195 3.933594,4.1875 -5.566406,-1.55273 -1.921875,5.36914 -1.371094,-5.39063 -0.875,0.16211 -3.898437,14.51367 h 8.859375 l 3.046875,-11.3789 h 5.144536 l 5.48828,11.3789 h 10.00976 l -5.67187,-11.39258 -0.56446,1.58203 -1.26562,-4.99414 -5.37891,1.0254 3.90625,-3.47071 -1.96093,-2.08398 -0.23243,0.0137 c -0.33255,0.0197 -0.67136,0.0312 -1.01757,0.0312 h -6.306646 l 0.503907,-1.875 0.158203,-0.5918 1.810546,-6.74414 h 6.16992 c 2.41415,0 3.97564,0.47564 4.82813,1.32813 0.64308,0.64308 0.97265,1.46058 0.97265,2.49023 0,0.90053 -0.20172,1.67629 -0.58789,2.33203 -0.0631,0.1017 -0.1333,0.20322 -0.20898,0.30664 l -0.13867,0.18946 0.55664,2.19336 5.3789,-1.02735 -3.90625,3.47071 2.42578,2.57617 0.35352,-0.24219 c 0.86047,-0.59194 1.62284,-1.25633 2.28516,-2 2.02006,-2.3036 3.01953,-5.12929 3.01953,-8.45898 0,-3.06265 -0.95305,-5.58001 -2.88867,-7.51563 -1.24895,-1.248949 -2.84361,-2.167436 -4.76758,-2.763672 -5.6e-4,-1.87e-4 -0.001,1.87e-4 -0.002,0 -1.89274,-0.63064 -4.1845,-0.939453 -6.86132,-0.939453 z m 18.267574,21.773435 -0.80859,2.27149 0.98438,-0.33985 c 0.49707,-0.1719 0.97354,-0.35643 1.43359,-0.55664 l 1.28516,-0.56054 z"
         inkscape:original-d="m 95.199345,95.203488 -2.919719,10.871172 1.188041,4.67155 5.686992,-1.08004 1.988511,-7.40161 h 6.55309 c 2.47225,0 4.19946,0.49116 5.18159,1.47329 0.74507,0.74507 1.11776,1.69332 1.11776,2.84479 0,0.98213 -0.22016,1.84547 -0.66042,2.59054 -0.0724,0.11697 -0.14994,0.23114 -0.23151,0.34261 l 0.38189,1.5074 6.69623,-1.2764 -4.87464,4.33048 1.77922,1.89136 c 0.82998,-0.57097 1.56114,-1.21029 2.19212,-1.91875 1.93038,-2.20133 2.89594,-4.91034 2.89594,-8.12767 0,-2.94638 -0.9147,-5.33407 -2.7435,-7.162867 -1.18533,-1.185331 -2.70916,-2.065967 -4.57181,-2.641699 -1.8288,-0.609598 -4.06394,-0.914156 -6.70554,-0.914156 z m 3.598746,15.788182 -3.385839,3.01377 4.808488,5.11907 -6.84454,-1.9079 -2.316138,6.47041 -1.65933,-6.52312 -0.104903,0.0196 -3.646806,13.57953 h 7.823295 l 3.047876,-11.37915 h 5.842016 l 5.48649,11.37915 h 8.8899 l -4.78937,-9.61905 -0.72244,2.02314 -1.55339,-6.12883 -6.69417,1.27382 4.87464,-4.33048 -1.44746,-1.53789 c -0.34202,0.0203 -0.69047,0.0315 -1.04696,0.0315 h -6.959784 z m 14.600659,6.09317 -0.30386,0.85111 c 0.48584,-0.16802 0.95212,-0.3495 1.3994,-0.54415 z" />
      <path
         id="path4541"
         style="font-style:italic;font-weight:bold;font-size:50.8px;line-height:1.25;font-family:Gotham;-inkscape-font-specification:'Gotham, Bold Italic';fill:#000000;fill-opacity:1;stroke-width:0.264583"
         d="m 92.910156,101.80078 -1.148437,4.26953 0.785156,3.08008 h 7.263672 l 1.974613,-7.34961 z m 15.880864,0 -0.0332,0.99805 c 1.8301,0.12442 3.05354,0.58088 3.76563,1.29297 0.64308,0.64308 0.97265,1.4606 0.97265,2.49023 0,0.70049 -0.12262,1.32159 -0.35742,1.87109 l -0.29883,0.69727 h 9.49024 l 0.0781,-0.4043 c 0.17667,-0.89925 0.26563,-1.83926 0.26563,-2.82421 0,-1.36613 -0.19031,-2.62665 -0.57617,-3.7793 l -0.11524,-0.3418 z"
         inkscape:original-d="m 93.293001,102.30125 -1.013375,3.77341 0.655257,2.57659 h 6.492111 l 1.706356,-6.35 z m 15.497759,0 c 1.89342,0.12873 3.25733,0.60684 4.08709,1.4366 0.74507,0.74507 1.11776,1.69333 1.11776,2.84479 0,0.76105 -0.13406,1.44991 -0.39842,2.06861 h 8.3199 c 0.16999,-0.86528 0.25735,-1.77429 0.25735,-2.72904 0,-1.31922 -0.18528,-2.5258 -0.5519,-3.62096 z" />
      <path
         id="path4543"
         style="fill:#000000;fill-opacity:1;stroke-width:0.236686"
         d="m 88.320312,118.88867 -1.974609,7.34961 h 8.855469 l 1.970703,-7.34961 h -4.925781 l -1.105469,3.08985 -0.785156,-3.08985 z m 13.248048,0 3.54297,7.34961 h 9.93164 l -3.16992,-6.36719 -0.56446,1.58203 -0.65039,-2.56445 z"
         inkscape:original-d="m 88.703617,119.38909 -1.705322,6.35 h 7.819678 l 1.700671,-6.35 H 92.59847 l -1.538408,4.29793 -1.093473,-4.29793 z m 13.661183,0 3.06183,6.35 h 8.81031 l -2.28771,-4.59507 -0.72244,2.02314 -0.95756,-3.77807 z" />
    </g>
    <path
       sodipodi:type="star"
       style="display:inline;fill:#000000;fill-opacity:0.980244;stroke-width:0.3048"
       id="path4559"
       inkscape:flatsided="false"
       sodipodi:sides="6"
       sodipodi:cx="64.347565"
       sodipodi:cy="81.37674"
       sodipodi:r1="7.0946007"
       sodipodi:r2="2.7160735"
       sodipodi:arg1="1.6049065"
       sodipodi:arg2="2.1005581"
       inkscape:rounded="0"
       inkscape:randomized="0"
       d="m 64.666016,72.595703 -1.960938,5.84375 -5.804687,-1.730469 4.083984,4.621094 -4.400391,4.16211 6.042969,-1.22461 1.402344,5.890625 1.960937,-5.845703 5.804688,1.730469 -4.082031,-4.621094 4.40039,-4.162109 -6.044922,1.226562 z"
       transform="matrix(1.1077739,0,0,1.040443,-11.265477,-65.231243)"
       inkscape:path-effect="#path-effect4561" />
    <path
       sodipodi:type="star"
       style="display:inline;fill:#000000;fill-opacity:0.980244;stroke-width:0.3048"
       id="path4557"
       inkscape:flatsided="false"
       sodipodi:sides="6"
       sodipodi:cx="64.347565"
       sodipodi:cy="81.37674"
       sodipodi:r1="7.0946007"
       sodipodi:r2="2.7221956"
       sodipodi:arg1="1.6049065"
       sodipodi:arg2="2.1010483"
       inkscape:rounded="0"
       inkscape:randomized="0"
       d="m 64.660156,72.728516 -1.933594,5.75 -5.71289,-1.697266 4.013672,4.550781 -4.326172,4.09961 5.949219,-1.203125 1.384765,5.796875 1.933594,-5.75 5.712891,1.695312 -4.013672,-4.548828 4.326172,-4.099609 -5.949219,1.203125 z"
       transform="matrix(1.1980864,0,0,1.1252662,-37.222057,-72.209337)"
       inkscape:path-effect="#path-effect4564" />
    <path
       sodipodi:type="star"
       style="display:inline;fill:#000000;fill-opacity:0.980244;stroke-width:0.3048"
       id="path4567"
       inkscape:flatsided="false"
       sodipodi:sides="6"
       sodipodi:cx="64.347565"
       sodipodi:cy="81.37674"
       sodipodi:r1="7.0946007"
       sodipodi:r2="2.9015582"
       sodipodi:arg1="1.6049065"
       sodipodi:arg2="2.1468015"
       inkscape:rounded="0"
       inkscape:randomized="0"
       d="m 64.626953,72.912109 -1.863281,5.384766 -5.607422,-1.394531 3.730469,4.308594 -4.007813,4.15625 5.59375,-1.078126 1.595703,5.552735 1.863282,-5.384766 5.607421,1.392578 -3.732421,-4.304687 4.009765,-4.158203 -5.59375,1.078125 z"
       transform="matrix(1.2440408,0,0,1.1684275,-61.399462,-75.90318)"
       inkscape:path-effect="#path-effect4569" />
    <g
       id="g4578"
       inkscape:label="g11677"
       inkscape:path-effect="#path-effect4580"
       style="display:inline;fill:#000000"
       transform="translate(-51.562214,-94.593706)">
      <path
         id="path4572"
         style="font-style:italic;font-weight:bold;font-size:50.8px;line-height:1.25;font-family:Gotham;-inkscape-font-specification:'Gotham, Bold Italic';fill:#000000;stroke-width:0.264583"
         d="m 132.10352,94.703125 -4.04688,15.074215 0.97266,0.23243 2.83984,-7.36915 2.08789,7.48829 2.99805,-0.50586 4.00781,-14.919925 z m -3.27344,23.259765 -3.11524,0.52344 -3.43164,12.77734 h 8.85938 l 3.21094,-11.95898 -0.94922,-0.3086 -2.48633,6.45508 z"
         inkscape:original-d="m 132.48647,95.203488 -3.81527,14.206372 0.0486,0.0124 3.22513,-8.37158 2.37349,8.50904 2.23656,-0.37569 3.75481,-13.980542 z m -4.01732,23.327262 -2.35386,0.39532 -3.17914,11.837 h 7.8233 l 3.11195,-11.58689 -3.02875,7.86516 z" />
      <path
         id="path4574"
         style="fill:#000000;fill-opacity:1;stroke-width:0.237872"
         d="m 130.19727,101.80078 -1.97461,7.34961 h 1.13867 l 2.50781,-6.51172 1.81641,6.51172 h 3.39453 l 1.97656,-7.34961 h -6.86523 -0.55664 z"
         inkscape:original-d="m 130.58013,102.30125 -1.70532,6.35 h 0.14211 l 2.44636,-6.35 z m 1.71359,0 1.77147,6.35 h 2.63291 l 1.70533,-6.35 z" />
      <path
         id="path4576"
         style="font-style:italic;font-weight:bold;font-size:50.8px;line-height:1.25;font-family:Gotham;-inkscape-font-specification:'Gotham, Bold Italic';fill:#000000;fill-opacity:1;stroke-width:0.264583"
         d="m 125.60742,118.88867 -1.97461,7.34961 h 6.98242 0.52149 1.35547 l 1.97461,-7.34961 h -1.02149 l -2.52734,6.56445 -1.83008,-6.56445 z"
         inkscape:original-d="m 125.99075,119.38909 -1.70533,6.35 h 6.19394 l -1.77095,-6.35 z m 7.79849,0 -2.44533,6.35 h 0.76481 l 1.70532,-6.35 z" />
    </g>
    <path
       sodipodi:type="star"
       style="display:inline;fill:#000000;fill-opacity:0.980244;stroke-width:0.3048"
       id="path4586"
       inkscape:flatsided="false"
       sodipodi:sides="6"
       sodipodi:cx="64.347565"
       sodipodi:cy="81.37674"
       sodipodi:r1="7.0946007"
       sodipodi:r2="2.8707056"
       sodipodi:arg1="1.6049065"
       sodipodi:arg2="2.1007848"
       inkscape:rounded="0"
       inkscape:randomized="0"
       class="UnoptimicedTransforms"
       d="m 64.669922,72.503906 -2.074219,5.736328 -5.771484,-1.580078 3.93164,4.666016 -4.253906,4.208984 6.005859,-1.074218 1.517579,5.789062 2.074218,-5.738281 5.771485,1.580078 -3.931641,-4.664063 4.253906,-4.208984 -6.005859,1.074219 z"
       transform="matrix(0.97302278,0,0,0.91388205,17.219795,-54.917501)"
       inkscape:path-effect="#path-effect4588" />
    <g
       id="g4597"
       inkscape:path-effect="#path-effect4599"
       style="display:inline;fill:#000000"
       transform="translate(-51.562215,-94.593706)">
      <path
         d="m 73.203125,94.09375 c -3.07972,0 -5.975823,0.588364 -8.685547,1.769531 -2.663128,1.175927 -5.001342,2.768892 -7.013672,4.781249 -1.973343,2.00797 -3.546022,4.32493 -4.722656,6.95508 -1.147093,2.60703 -1.71875,5.365 -1.71875,8.2793 0,2.42952 0.415702,4.64452 1.257812,6.64453 l 0.002,0.006 0.002,0.004 c 0.874804,1.95956 2.081836,3.64068 3.630859,5.04883 1.541103,1.36598 3.35743,2.42895 5.453125,3.19727 2.12404,0.73122 4.430252,1.09375 6.917969,1.09375 3.036912,0 5.669719,-0.51748 7.884766,-1.57227 2.179168,-1.0377 4.151126,-2.36963 5.916015,-3.99609 l 0.376953,-0.34571 -5.753906,-5.98437 -0.357422,0.29297 c -1.297678,1.06476 -2.554101,1.90478 -3.769531,2.5293 -1.170479,0.56831 -2.580848,0.86328 -4.246094,0.86328 -1.233024,0 -2.341063,-0.1968 -3.326172,-0.57813 -0.989624,-0.38308 -1.843732,-0.92308 -2.572265,-1.61914 -0.727013,-0.72831 -1.298181,-1.58227 -1.712891,-2.56836 -0.379975,-0.98377 -0.576172,-2.08952 -0.576172,-3.32031 0,-1.83486 0.328981,-3.54919 0.978516,-5.14063 0.689915,-1.64265 1.589691,-3.04809 2.695312,-4.21875 1.144524,-1.20991 2.432819,-2.1543 3.869141,-2.83984 1.457283,-0.71245 2.961757,-1.06836 4.505859,-1.06836 2.064319,0 3.687081,0.4268 4.904297,1.23828 1.262527,0.84168 2.404552,1.97907 3.423828,3.42578 l 0.28711,0.40821 7.24414,-5.07618 -0.242187,-0.40039 c -1.465872,-2.408217 -3.404242,-4.312901 -5.8125,-5.708981 -2.397749,-1.41044 -5.352347,-2.099609 -8.839844,-2.099609 z"
         style="font-style:italic;font-weight:bold;font-size:50.8px;line-height:1.25;font-family:Gotham;-inkscape-font-specification:'Gotham, Bold Italic';fill:#000000;stroke-width:0.264583"
         id="path4591"
         inkscape:original-d="m 68.326215,131.37291 q 4.4704,0 7.6708,-1.524 3.2004,-1.524 5.7912,-3.9116 l -5.08,-5.2832 q -1.9812,1.6256 -3.8608,2.5908 -1.8796,0.9144 -4.4704,0.9144 -1.9304,0 -3.5052,-0.6096 -1.5748,-0.6096 -2.7432,-1.7272 -1.1684,-1.1684 -1.8288,-2.7432 -0.6096,-1.5748 -0.6096,-3.5052 0,-2.8448 1.016,-5.334 1.0668,-2.54 2.794,-4.3688 1.778,-1.8796 4.0132,-2.9464 2.286,-1.1176 4.7244,-1.1176 3.2004,0 5.1816,1.3208 1.9812,1.3208 3.556,3.556 l 6.4516,-4.5212 q -2.1336,-3.505204 -5.6388,-5.537204 -3.4544,-2.032 -8.5852,-2.032 -4.5212,0 -8.4836,1.7272 -3.9116,1.7272 -6.858,4.673604 -2.8956,2.9464 -4.6228,6.8072 -1.6764,3.81 -1.6764,8.0772 0,3.556 1.2192,6.4516 1.27,2.8448 3.5052,4.8768 2.2352,1.9812 5.2832,3.0988 3.0988,1.0668 6.7564,1.0668 z" />
      <path
         id="path4593"
         style="fill:#000000;fill-opacity:1;stroke-width:0.237872"
         d="m 56.441406,101.80078 -0.15039,0.17774 c -1.416017,1.68229 -2.585378,3.55479 -3.509766,5.62109 -0.127256,0.28922 -0.247017,0.58012 -0.359375,0.87109 l -0.261719,0.67969 h 9.611328 l 0.142578,-0.25781 c 0.55566,-0.99878 1.205646,-1.89043 1.949219,-2.67774 1.144521,-1.20992 2.432821,-2.1543 3.869141,-2.83984 0.490662,-0.23988 0.985623,-0.43925 1.484375,-0.59766 l -0.150391,-0.97656 z m 19.267578,0 -0.173828,0.97461 c 0.598062,0.19648 1.134331,0.45414 1.607422,0.76953 1.262526,0.84168 2.404553,1.97907 3.423828,3.42578 l 0.289063,0.41016 7.222656,-5.12109 z"
         inkscape:original-d="m 56.674577,102.30125 c -1.385272,1.64577 -2.531399,3.47847 -3.435966,5.50044 -0.123733,0.28121 -0.239299,0.56461 -0.349333,0.84956 h 8.588106 c 0.575016,-1.03357 1.248734,-1.96079 2.022616,-2.78019 1.185332,-1.25307 2.52306,-2.23488 4.013192,-2.94608 0.511758,-0.25019 1.029661,-0.45755 1.552877,-0.62373 z m 19.017444,0 c 0.637148,0.20932 1.213506,0.48413 1.727543,0.82682 1.320798,0.88053 2.505989,2.06573 3.555855,3.55586 l 5.610117,-3.97798 z"
         sodipodi:nodetypes="cccccccccsccc" />
      <path
         id="path4595"
         style="fill:#000000;fill-opacity:1;stroke-width:0.236686"
         d="m 51.283203,118.88867 0.117188,0.59571 c 0.209181,1.06309 0.514769,2.07681 0.919921,3.03906 l 0.002,0.006 0.002,0.004 c 0.578309,1.29541 1.305837,2.46969 2.177734,3.52344 l 0.152344,0.18555 27.763672,-0.375 -5.671875,-5.89258 -0.355469,0.29297 c -1.297855,1.06491 -2.552337,1.90488 -3.767578,2.5293 -1.170477,0.56831 -2.58085,0.86328 -4.246094,0.86328 -1.233023,0 -2.341059,-0.19679 -3.326172,-0.57813 -0.989616,-0.38307 -1.843732,-0.92308 -2.572265,-1.61914 -0.655699,-0.65687 -1.186382,-1.41902 -1.587891,-2.28516 l -0.134766,-0.28906 z"
         inkscape:original-d="m 51.890889,119.3891 c 0.202918,1.03127 0.499121,2.01216 0.890385,2.94142 0.560323,1.25512 1.262635,2.39078 2.104782,3.40858 l 26.371435,-0.35537 -4.549512,-4.7296 c -1.320798,1.08374 -2.607681,1.94708 -3.860746,2.59054 -1.253065,0.6096 -2.742813,0.91468 -4.470011,0.91468 -1.286932,0 -2.455347,-0.20339 -3.505213,-0.60979 -1.049865,-0.40639 -1.964569,-0.98196 -2.743502,-1.72702 -0.70106,-0.70106 -1.263611,-1.51291 -1.690336,-2.43344 z"
         inkscape:label="path4595"
         sodipodi:nodetypes="ccccccscccc" />
    </g>
  </g>
  <g
     inkscape:label="Letters"
     inkscape:groupmode="layer"
     id="layer1"
     style="display:inline"
     transform="translate(-51.062501,-94.09375)">
    <g
       id="g11677"
       inkscape:label="g11677">
      <path
         id="path320"
         style="font-style:italic;font-weight:bold;font-size:50.8px;line-height:1.25;font-family:Gotham;-inkscape-font-specification:'Gotham, Bold Italic';fill:#ffffff;stroke-width:0.264583"
         d="m 132.48647,95.203488 -3.81527,14.206372 0.0486,0.0124 3.22513,-8.37158 2.37349,8.50904 2.23656,-0.37569 3.75481,-13.980542 z m -4.01732,23.327262 -2.35386,0.39532 -3.17914,11.837 h 7.8233 l 3.11195,-11.58689 -3.02875,7.86516 z" />
      <path
         id="rect4088"
         style="fill:#b3ddf3;fill-opacity:1;stroke-width:0.237872"
         d="m 130.58013,102.30125 -1.70532,6.35 h 0.14211 l 2.44636,-6.35 z m 1.71359,0 1.77147,6.35 h 2.63291 l 1.70533,-6.35 z" />
      <path
         id="path4097"
         style="font-style:italic;font-weight:bold;font-size:50.8px;line-height:1.25;font-family:Gotham;-inkscape-font-specification:'Gotham, Bold Italic';fill:#b3ddf3;fill-opacity:1;stroke-width:0.264583"
         d="m 125.99075,119.38909 -1.70533,6.35 h 6.19394 l -1.77095,-6.35 z m 7.79849,0 -2.44533,6.35 h 0.76481 l 1.70532,-6.35 z" />
    </g>
    <g
       id="g11687">
      <path
         d="m 68.326215,131.37291 q 4.4704,0 7.6708,-1.524 3.2004,-1.524 5.7912,-3.9116 l -5.08,-5.2832 q -1.9812,1.6256 -3.8608,2.5908 -1.8796,0.9144 -4.4704,0.9144 -1.9304,0 -3.5052,-0.6096 -1.5748,-0.6096 -2.7432,-1.7272 -1.1684,-1.1684 -1.8288,-2.7432 -0.6096,-1.5748 -0.6096,-3.5052 0,-2.8448 1.016,-5.334 1.0668,-2.54 2.794,-4.3688 1.778,-1.8796 4.0132,-2.9464 2.286,-1.1176 4.7244,-1.1176 3.2004,0 5.1816,1.3208 1.9812,1.3208 3.556,3.556 l 6.4516,-4.5212 q -2.1336,-3.505204 -5.6388,-5.537204 -3.4544,-2.032 -8.5852,-2.032 -4.5212,0 -8.4836,1.7272 -3.9116,1.7272 -6.858,4.673604 -2.8956,2.9464 -4.6228,6.8072 -1.6764,3.81 -1.6764,8.0772 0,3.556 1.2192,6.4516 1.27,2.8448 3.5052,4.8768 2.2352,1.9812 5.2832,3.0988 3.0988,1.0668 6.7564,1.0668 z"
         style="font-style:italic;font-weight:bold;font-size:50.8px;line-height:1.25;font-family:Gotham;-inkscape-font-specification:'Gotham, Bold Italic';fill:#ffffff;stroke-width:0.264583"
         id="path316" />
      <path
         id="rect378"
         style="fill:#b3ddf3;fill-opacity:1;stroke-width:0.237872"
         d="m 56.674577,102.30125 c -1.385272,1.64577 -2.531399,3.47847 -3.435966,5.50044 -0.123733,0.28121 -0.239299,0.56461 -0.349333,0.84956 h 8.588106 c 0.575016,-1.03357 1.248734,-1.96079 2.022616,-2.78019 1.185332,-1.25307 2.52306,-2.23488 4.013192,-2.94608 0.511758,-0.25019 1.029661,-0.45755 1.552877,-0.62373 z m 19.017444,0 c 0.637148,0.20932 1.213506,0.48413 1.727543,0.82682 1.320798,0.88053 2.505989,2.06573 3.555855,3.55586 l 6.254399,-4.38268 z" />
      <path
         id="rect4103"
         style="fill:#b3ddf3;fill-opacity:1;stroke-width:0.236686"
         d="m 51.890889,119.3891 c 0.202918,1.03127 0.499121,2.01216 0.890385,2.94142 0.560323,1.25512 1.262635,2.39078 2.104782,3.40858 h 26.711547 l -4.889624,-5.08497 c -1.320798,1.08374 -2.607681,1.94708 -3.860746,2.59054 -1.253065,0.6096 -2.742813,0.91468 -4.470011,0.91468 -1.286932,0 -2.455347,-0.20339 -3.505213,-0.60979 -1.049865,-0.40639 -1.964569,-0.98196 -2.743502,-1.72702 -0.70106,-0.70106 -1.263611,-1.51291 -1.690336,-2.43344 z" />
    </g>
    <g
       id="g11682">
      <path
         id="path318"
         style="font-style:italic;font-weight:bold;font-size:50.8px;line-height:1.25;font-family:Gotham;-inkscape-font-specification:'Gotham, Bold Italic';fill:#ffffff;stroke-width:0.264583"
         d="m 95.199345,95.203488 -2.919719,10.871172 1.188041,4.67155 5.686992,-1.08004 1.988511,-7.40161 h 6.55309 c 2.47225,0 4.19946,0.49116 5.18159,1.47329 0.74507,0.74507 1.11776,1.69332 1.11776,2.84479 0,0.98213 -0.22016,1.84547 -0.66042,2.59054 -0.0724,0.11697 -0.14994,0.23114 -0.23151,0.34261 l 0.38189,1.5074 6.69623,-1.2764 -4.87464,4.33048 1.77922,1.89136 c 0.82998,-0.57097 1.56114,-1.21029 2.19212,-1.91875 1.93038,-2.20133 2.89594,-4.91034 2.89594,-8.12767 0,-2.94638 -0.9147,-5.33407 -2.7435,-7.162867 -1.18533,-1.185331 -2.70916,-2.065967 -4.57181,-2.641699 -1.8288,-0.609598 -4.06394,-0.914156 -6.70554,-0.914156 z m 3.598746,15.788182 -3.385839,3.01377 4.808488,5.11907 -6.84454,-1.9079 -2.316138,6.47041 -1.65933,-6.52312 -0.104903,0.0196 -3.646806,13.57953 h 7.823295 l 3.047876,-11.37915 h 5.842016 l 5.48649,11.37915 h 8.8899 l -4.78937,-9.61905 -0.72244,2.02314 -1.55339,-6.12883 -6.69417,1.27382 4.87464,-4.33048 -1.44746,-1.53789 c -0.34202,0.0203 -0.69047,0.0315 -1.04696,0.0315 h -6.959784 z m 14.600659,6.09317 -0.30386,0.85111 c 0.48584,-0.16802 0.95212,-0.3495 1.3994,-0.54415 z" />
      <path
         id="path4083"
         style="font-style:italic;font-weight:bold;font-size:50.8px;line-height:1.25;font-family:Gotham;-inkscape-font-specification:'Gotham, Bold Italic';fill:#b3ddf3;fill-opacity:1;stroke-width:0.264583"
         d="m 93.293001,102.30125 -1.013375,3.77341 0.655257,2.57659 h 6.492111 l 1.706356,-6.35 z m 15.497759,0 c 1.89342,0.12873 3.25733,0.60684 4.08709,1.4366 0.74507,0.74507 1.11776,1.69333 1.11776,2.84479 0,0.76105 -0.13406,1.44991 -0.39842,2.06861 h 8.3199 c 0.16999,-0.86528 0.25735,-1.77429 0.25735,-2.72904 0,-1.31922 -0.18528,-2.5258 -0.5519,-3.62096 z" />
      <path
         id="rect4105"
         style="fill:#b3ddf3;fill-opacity:1;stroke-width:0.236686"
         d="m 88.703617,119.38909 -1.705322,6.35 h 7.819678 l 1.700671,-6.35 H 92.59847 l -1.538408,4.29793 -1.093473,-4.29793 z m 13.661183,0 3.06183,6.35 h 8.81031 l -2.28771,-4.59507 -0.72244,2.02314 -0.95756,-3.77807 z" />
    </g>
    <g
       id="g1116"
       style="display:none;stroke:#00ff00;stroke-opacity:1">
      <path
         d="m 52.9056,108.507 83.60742,0.0233"
         style="fill:#ffff00;stroke:#00ff00;stroke-width:0.264583px;stroke-linecap:butt;stroke-linejoin:miter;stroke-opacity:1"
         id="path1110"
         sodipodi:nodetypes="cc" />
      <path
         d="M 51.996972,119.29867 134.275,119.491"
         style="fill:#ffff00;stroke:#00ff00;stroke-width:0.264583px;stroke-linecap:butt;stroke-linejoin:miter;stroke-opacity:1"
         id="path1114"
         sodipodi:nodetypes="cc" />
      <g
         id="g2666"
         style="stroke:#00ff00;stroke-opacity:1">
        <path
           d="m 52.9056,108.507 83.6074,0.023"
           style="fill:#ffff00;stroke:#00ff00;stroke-width:0.264583px;stroke-linecap:butt;stroke-linejoin:miter;stroke-opacity:1"
           id="path2660" />
        <path
           d="m 52.4513,113.903 82.9427,0.108"
           style="fill:#ffff00;stroke:#00ff00;stroke-width:0.264583px;stroke-linecap:butt;stroke-linejoin:miter;stroke-opacity:1"
           id="path2662" />
        <path
           d="m 51.997,119.299 82.278,0.192"
           style="fill:#ffff00;stroke:#00ff00;stroke-width:0.264583px;stroke-linecap:butt;stroke-linejoin:miter;stroke-opacity:1"
           id="path2664" />
      </g>
    </g>
  </g>
  <g
     inkscape:groupmode="layer"
     id="layer3"
     inkscape:label="Side Text"
     style="display:none"
     transform="translate(-2.1342409,0.499956)">
    <text
       xml:space="preserve"
       style="font-size:10.5833px;line-height:1.25;font-family:Montserrat;-inkscape-font-specification:'Montserrat, Normal';display:inline;stroke-width:0.264583"
       x="140.88484"
       y="107.94005"
       id="text3590"
       transform="translate(-48.928261,-94.593706)"><tspan
         sodipodi:role="line"
         style="font-style:italic;font-variant:normal;font-weight:300;font-stretch:normal;font-size:7.76111px;font-family:Roboto;-inkscape-font-specification:'Roboto, Light Italic';font-variant-ligatures:normal;font-variant-caps:normal;font-variant-numeric:normal;font-variant-east-asian:normal;fill:#f9f9f9;stroke-width:0.264583"
         x="140.88484"
         y="107.94005"
         id="tspan3600">Chicago</tspan></text>
    <text
       xml:space="preserve"
       style="font-size:10.5833px;line-height:1.25;font-family:Montserrat;-inkscape-font-specification:'Montserrat, Normal';display:inline;stroke-width:0.264583"
       x="140.49287"
       y="115.94489"
       id="text3594"
       transform="translate(-48.928261,-94.593706)"><tspan
         sodipodi:role="line"
         id="tspan3592"
         style="font-style:italic;font-variant:normal;font-weight:300;font-stretch:normal;font-size:7.76111px;font-family:Roboto;-inkscape-font-specification:'Roboto, Light Italic';font-variant-ligatures:normal;font-variant-caps:normal;font-variant-numeric:normal;font-variant-east-asian:normal;fill:#f9f9f9;stroke-width:0.264583"
         x="140.49287"
         y="115.94489">Robotics</tspan></text>
    <text
       xml:space="preserve"
       style="font-size:10.5833px;line-height:1.25;font-family:Montserrat;-inkscape-font-specification:'Montserrat, Normal';display:inline;stroke-width:0.264583"
       x="139.92108"
       y="123.45234"
       id="text3598"
       transform="translate(-48.928261,-94.593706)"><tspan
         sodipodi:role="line"
         id="tspan3596"
         style="font-style:italic;font-variant:normal;font-weight:300;font-stretch:normal;font-size:7.76111px;font-family:Roboto;-inkscape-font-specification:'Roboto, Light Italic';font-variant-ligatures:normal;font-variant-caps:normal;font-variant-numeric:normal;font-variant-east-asian:normal;fill:#f9f9f9;stroke-width:0.264583"
         x="139.92108"
         y="123.45234">Invitational</tspan></text>
  </g>
  <g
     inkscape:groupmode="layer"
     id="layer4"
     inkscape:label="Bottom Text"
     transform="translate(-2.1342409,0.499956)"
     style="display:none">
    <text
       xml:space="preserve"
       style="font-size:10.5833px;line-height:1.25;font-family:Montserrat;-inkscape-font-specification:'Montserrat, Normal';display:inline;stroke-width:0.264583"
       x="45.796551"
       y="137.86044"
       id="text3536"
       transform="translate(-48.928261,-94.593706)"><tspan
         sodipodi:role="line"
         id="tspan3534"
         style="font-style:italic;font-variant:normal;font-weight:300;font-stretch:normal;font-size:7.76111px;font-family:Roboto;-inkscape-font-specification:'Roboto, Light Italic';font-variant-ligatures:normal;font-variant-caps:normal;font-variant-numeric:normal;font-variant-east-asian:normal;fill:#f9f9f9;stroke-width:0.264583"
         x="45.796551"
         y="137.86044">Chicago Robotics Invitational</tspan></text>
  </g>
  <g
     inkscape:groupmode="layer"
     id="layer2"
     inkscape:label="Stars"
     style="display:inline"
     transform="translate(-51.062501,-94.09375)">
    <path
       sodipodi:type="star"
       style="fill:#fe0000;fill-opacity:0.980244;stroke-width:0.3048"
       id="path7797"
       inkscape:flatsided="false"
       sodipodi:sides="6"
       sodipodi:cx="64.347565"
       sodipodi:cy="81.37674"
       sodipodi:r1="7.0946007"
       sodipodi:r2="2.9015582"
       sodipodi:arg1="1.6049065"
       sodipodi:arg2="2.1468015"
       inkscape:rounded="0"
       inkscape:randomized="0"
       d="m 64.105614,88.467213 -1.338464,-4.657096 -4.681091,0.902324 3.363931,-3.487692 -3.12198,-3.602782 4.702395,1.169404 1.559111,-4.505105 1.338464,4.657096 4.681091,-0.902324 -3.363932,3.487692 3.121981,3.602782 -4.702396,-1.169404 z"
       transform="matrix(1.2440408,0,0,1.1684275,-9.8372482,18.690527)" />
    <path
       sodipodi:type="star"
       style="fill:#fe0000;fill-opacity:0.980244;stroke-width:0.3048"
       id="path8577"
       inkscape:flatsided="false"
       sodipodi:sides="6"
       sodipodi:cx="64.347565"
       sodipodi:cy="81.37674"
       sodipodi:r1="7.0946007"
       sodipodi:r2="2.7221956"
       sodipodi:arg1="1.6049065"
       sodipodi:arg2="2.1010483"
       inkscape:rounded="0"
       inkscape:randomized="0"
       d="m 64.105614,88.467213 -1.134802,-4.742091 -4.884753,0.987319 3.53937,-3.353813 -3.297419,-3.736661 4.674172,1.388279 1.587334,-4.72398 1.134801,4.742091 4.884754,-0.987319 -3.539371,3.353813 3.29742,3.736661 -4.674172,-1.388279 z"
       transform="matrix(1.1980864,0,0,1.1252662,14.340159,22.38437)" />
    <path
       sodipodi:type="star"
       style="fill:#fe0000;fill-opacity:0.980244;stroke-width:0.3048"
       id="path8579"
       inkscape:flatsided="false"
       sodipodi:sides="6"
       sodipodi:cx="64.347565"
       sodipodi:cy="81.37674"
       sodipodi:r1="7.0946007"
       sodipodi:r2="2.7160735"
       sodipodi:arg1="1.6049065"
       sodipodi:arg2="2.1005581"
       inkscape:rounded="0"
       inkscape:randomized="0"
       d="M 64.105614,88.467213 62.975057,83.720514 58.086059,84.712441 61.631543,81.36 58.32801,77.621967 l 4.67604,1.394259 1.585466,-4.72996 1.130556,4.746699 4.888999,-0.991927 -3.545484,3.352441 3.303533,3.738033 -4.676041,-1.394259 z"
       transform="matrix(1.1077739,0,0,1.040443,40.296738,29.362463)" />
    <path
       sodipodi:type="star"
       style="fill:#fe0000;fill-opacity:0.980244;stroke-width:0.3048"
       id="path8581"
       inkscape:flatsided="false"
       sodipodi:sides="6"
       sodipodi:cx="64.347565"
       sodipodi:cy="81.37674"
       sodipodi:r1="7.0946007"
       sodipodi:r2="2.8707056"
       sodipodi:arg1="1.6049065"
       sodipodi:arg2="2.1007848"
       inkscape:rounded="0"
       inkscape:randomized="0"
       class="UnoptimicedTransforms"
       d="m 64.105614,88.467213 -1.209258,-4.613592 -4.810297,0.85882 3.390859,-3.354044 -3.148908,-3.73643 4.600117,1.259548 1.661389,-4.595249 1.209258,4.613592 4.810297,-0.85882 -3.390859,3.354044 3.148908,3.73643 -4.600117,-1.259548 z"
       transform="matrix(0.97302278,0,0,0.91388205,68.78201,39.676204)" />
  </g>
</svg>
